<svg width="89" height="89" viewBox="0 0 89 89" fill="none" xmlns="http://www.w3.org/2000/svg">
<g id="Symbol Variant=CLOVA FaceSign">
<g id="Vector">
<path fill-rule="evenodd" clip-rule="evenodd" d="M4.725 5.19643H19.0214V0.471436H0V19.4679H4.725V5.19643ZM69.0393 0.471436V5.19643H83.3357V19.4679H88.0536V0.471436H69.0393ZM4.725 69.5321H0V88.5285H19.0214V83.8036H4.725V69.5321ZM83.3321 83.8036H69.0357V88.5285H88.0571V69.5321H83.3321V83.8036Z" fill="#222222"/>
<path fill-rule="evenodd" clip-rule="evenodd" d="M4.725 5.19643H19.0214V0.471436H0V19.4679H4.725V5.19643ZM69.0393 0.471436V5.19643H83.3357V19.4679H88.0536V0.471436H69.0393ZM4.725 69.5321H0V88.5285H19.0214V83.8036H4.725V69.5321ZM83.3321 83.8036H69.0357V88.5285H88.0571V69.5321H83.3321V83.8036Z" fill="url(#paint0_linear_436_2007)"/>
</g>
<g id="Vector_2">
<path d="M72.2782 57.9574C75.0639 56.9646 77.2925 54.8253 78.4032 52.0824L80.9854 44.0003C81.6354 41.8931 81.4282 39.6181 80.4032 37.6681C79.3639 35.7824 77.6032 34.4003 75.5282 33.8324L74.5282 33.5003C73.6639 17.2931 60.2568 4.60384 44.0282 4.62527C27.8139 4.64313 14.4354 17.311 13.5282 33.5003L12.6532 33.7931C10.5282 34.3467 8.72108 35.7467 7.65322 37.6681C6.62822 39.6181 6.42108 41.8967 7.07108 44.0003L9.65322 52.0824C10.7818 54.8539 13.0425 57.0074 15.8604 58.0003L17.1961 58.4574C19.1568 64.5467 22.3961 70.1431 26.6961 74.8753L29.3604 77.8324C31.6247 80.3467 34.4961 82.2396 37.6961 83.3324C39.7532 84.011 41.9032 84.361 44.0711 84.3753C46.2389 84.3753 48.3925 84.0074 50.4461 83.2931C53.6461 82.2181 56.5175 80.3396 58.7782 77.8324L61.4461 74.8753C65.7318 70.1324 68.9675 64.5396 70.9461 58.4574L72.2782 57.9574ZM76.2354 39.9574C76.6889 40.7431 76.7818 41.686 76.4854 42.5431L73.9032 50.8753C73.5604 51.611 73.0282 52.2431 72.3604 52.7074C72.3854 52.6003 72.3854 52.486 72.3604 52.3753L74.2354 39.8753V38.7503C75.0389 38.8646 75.7604 39.3038 76.2354 39.9574ZM69.8211 34.1253C69.9175 35.7253 69.8461 37.3324 69.6104 38.9181L69.1961 41.8753C65.9497 40.7896 62.6175 39.9824 59.2354 39.4574C59.1282 35.0753 58.7354 30.7074 58.0711 26.3753C62.5568 27.5467 66.5461 30.1324 69.4461 33.7503L69.8211 34.1253ZM54.5282 38.8753C51.9032 38.5824 49.1961 38.4181 46.1961 38.3753V24.3753C48.4747 24.4753 50.7425 24.7253 52.9854 25.1253C53.8318 29.6646 54.3461 34.261 54.5282 38.8753ZM46.3604 19.5003V12.2931C49.2532 13.986 51.2889 16.836 51.9461 20.1253C50.1961 19.8753 48.1961 19.7503 46.3604 19.5003ZM46.3604 78.4181V62.5003C48.7782 62.5003 51.0711 62.5003 53.3604 62.1253C51.7354 71.1681 48.8604 76.5003 46.3604 78.5824V78.4181ZM46.3604 57.5824V43.0824C49.2354 43.0824 52.0282 43.3324 54.6961 43.6253V45.7503C54.7175 49.6217 54.5104 53.4896 54.0711 57.3324C51.6104 57.5824 49.0282 57.7074 46.3604 57.7931V57.5824ZM59.3211 44.5003C62.4639 44.9824 65.5497 45.7931 68.5282 46.9181L68.1104 49.7074L67.7782 51.5824C67.5604 52.7253 67.2782 53.8503 66.9461 54.9574C64.2925 55.8146 61.5747 56.4574 58.8211 56.8753C59.1532 53.4574 59.3604 49.7931 59.3604 45.9574C59.3604 45.2503 59.3211 44.7503 59.3211 44.5003ZM63.8604 18.6681C65.6604 20.9181 67.0711 23.4538 68.0282 26.1681C64.6175 23.8538 60.8211 22.161 56.8211 21.1681C56.0818 17.3038 54.3747 13.6931 51.8604 10.6681C56.5604 12.0967 60.7354 14.8824 63.8604 18.6681ZM14.1532 50.6681L11.5711 42.3324C11.2746 41.4753 11.3675 40.536 11.8211 39.7503C12.2282 39.0431 12.8782 38.5074 13.6532 38.2503C13.6318 38.6253 13.6318 39.0003 13.6532 39.3753L15.1961 50.1253L15.4854 51.9574C15.5068 52.0824 15.5068 52.2074 15.4854 52.3324C14.9282 51.8789 14.4711 51.311 14.1532 50.6681ZM32.8604 74.6681L30.1961 71.7074C25.0389 66.0003 21.5997 58.9539 20.2782 51.3753L18.4461 38.8753C17.4461 31.8717 19.3639 24.761 23.7497 19.211C28.1354 13.6574 34.6068 10.1431 41.6532 9.50027V79.4574C40.8175 79.3146 39.9961 79.1039 39.1961 78.8324C36.7639 78.011 34.5818 76.5753 32.8604 74.6681ZM57.8604 71.7074L55.1961 74.6681C54.8604 75.0003 54.4854 75.2503 54.1532 75.5431C56.1997 71.0967 57.6032 66.3824 58.3211 61.5431C60.6497 61.2289 62.9568 60.786 65.2354 60.2074C63.4604 64.4289 60.9818 68.3146 57.9032 71.7074H57.8604Z" fill="#222222"/>
<path d="M72.2782 57.9574C75.0639 56.9646 77.2925 54.8253 78.4032 52.0824L80.9854 44.0003C81.6354 41.8931 81.4282 39.6181 80.4032 37.6681C79.3639 35.7824 77.6032 34.4003 75.5282 33.8324L74.5282 33.5003C73.6639 17.2931 60.2568 4.60384 44.0282 4.62527C27.8139 4.64313 14.4354 17.311 13.5282 33.5003L12.6532 33.7931C10.5282 34.3467 8.72108 35.7467 7.65322 37.6681C6.62822 39.6181 6.42108 41.8967 7.07108 44.0003L9.65322 52.0824C10.7818 54.8539 13.0425 57.0074 15.8604 58.0003L17.1961 58.4574C19.1568 64.5467 22.3961 70.1431 26.6961 74.8753L29.3604 77.8324C31.6247 80.3467 34.4961 82.2396 37.6961 83.3324C39.7532 84.011 41.9032 84.361 44.0711 84.3753C46.2389 84.3753 48.3925 84.0074 50.4461 83.2931C53.6461 82.2181 56.5175 80.3396 58.7782 77.8324L61.4461 74.8753C65.7318 70.1324 68.9675 64.5396 70.9461 58.4574L72.2782 57.9574ZM76.2354 39.9574C76.6889 40.7431 76.7818 41.686 76.4854 42.5431L73.9032 50.8753C73.5604 51.611 73.0282 52.2431 72.3604 52.7074C72.3854 52.6003 72.3854 52.486 72.3604 52.3753L74.2354 39.8753V38.7503C75.0389 38.8646 75.7604 39.3038 76.2354 39.9574ZM69.8211 34.1253C69.9175 35.7253 69.8461 37.3324 69.6104 38.9181L69.1961 41.8753C65.9497 40.7896 62.6175 39.9824 59.2354 39.4574C59.1282 35.0753 58.7354 30.7074 58.0711 26.3753C62.5568 27.5467 66.5461 30.1324 69.4461 33.7503L69.8211 34.1253ZM54.5282 38.8753C51.9032 38.5824 49.1961 38.4181 46.1961 38.3753V24.3753C48.4747 24.4753 50.7425 24.7253 52.9854 25.1253C53.8318 29.6646 54.3461 34.261 54.5282 38.8753ZM46.3604 19.5003V12.2931C49.2532 13.986 51.2889 16.836 51.9461 20.1253C50.1961 19.8753 48.1961 19.7503 46.3604 19.5003ZM46.3604 78.4181V62.5003C48.7782 62.5003 51.0711 62.5003 53.3604 62.1253C51.7354 71.1681 48.8604 76.5003 46.3604 78.5824V78.4181ZM46.3604 57.5824V43.0824C49.2354 43.0824 52.0282 43.3324 54.6961 43.6253V45.7503C54.7175 49.6217 54.5104 53.4896 54.0711 57.3324C51.6104 57.5824 49.0282 57.7074 46.3604 57.7931V57.5824ZM59.3211 44.5003C62.4639 44.9824 65.5497 45.7931 68.5282 46.9181L68.1104 49.7074L67.7782 51.5824C67.5604 52.7253 67.2782 53.8503 66.9461 54.9574C64.2925 55.8146 61.5747 56.4574 58.8211 56.8753C59.1532 53.4574 59.3604 49.7931 59.3604 45.9574C59.3604 45.2503 59.3211 44.7503 59.3211 44.5003ZM63.8604 18.6681C65.6604 20.9181 67.0711 23.4538 68.0282 26.1681C64.6175 23.8538 60.8211 22.161 56.8211 21.1681C56.0818 17.3038 54.3747 13.6931 51.8604 10.6681C56.5604 12.0967 60.7354 14.8824 63.8604 18.6681ZM14.1532 50.6681L11.5711 42.3324C11.2746 41.4753 11.3675 40.536 11.8211 39.7503C12.2282 39.0431 12.8782 38.5074 13.6532 38.2503C13.6318 38.6253 13.6318 39.0003 13.6532 39.3753L15.1961 50.1253L15.4854 51.9574C15.5068 52.0824 15.5068 52.2074 15.4854 52.3324C14.9282 51.8789 14.4711 51.311 14.1532 50.6681ZM32.8604 74.6681L30.1961 71.7074C25.0389 66.0003 21.5997 58.9539 20.2782 51.3753L18.4461 38.8753C17.4461 31.8717 19.3639 24.761 23.7497 19.211C28.1354 13.6574 34.6068 10.1431 41.6532 9.50027V79.4574C40.8175 79.3146 39.9961 79.1039 39.1961 78.8324C36.7639 78.011 34.5818 76.5753 32.8604 74.6681ZM57.8604 71.7074L55.1961 74.6681C54.8604 75.0003 54.4854 75.2503 54.1532 75.5431C56.1997 71.0967 57.6032 66.3824 58.3211 61.5431C60.6497 61.2289 62.9568 60.786 65.2354 60.2074C63.4604 64.4289 60.9818 68.3146 57.9032 71.7074H57.8604Z" fill="url(#paint1_linear_436_2007)"/>
</g>
</g>
<defs>
<linearGradient id="paint0_linear_436_2007" x1="49.9346" y1="39.5441" x2="7.31579" y2="15.4526" gradientUnits="userSpaceOnUse">
<stop stop-color="#00D1C9"/>
<stop offset="1" stop-color="#00E25E"/>
</linearGradient>
<linearGradient id="paint1_linear_436_2007" x1="49.0355" y1="40.0119" x2="11.7867" y2="20.3003" gradientUnits="userSpaceOnUse">
<stop stop-color="#00D1C9"/>
<stop offset="1" stop-color="#00E25E"/>
</linearGradient>
</defs>
</svg>
