<svg width="152" height="28" viewBox="0 0 152 28" fill="none" xmlns="http://www.w3.org/2000/svg">
<g clip-path="url(#clip0_423_1377)">
<path fill-rule="evenodd" clip-rule="evenodd" d="M11.9918 21.3525L16.7885 22.687L19.6982 11.4123C20.9479 6.56928 18.2029 1.59765 13.5668 0.307883C8.9309 -0.981889 4.15954 1.89862 2.90964 6.74166L0 18.0163L4.79678 19.3508L3.82687 23.109C3.29116 25.1847 4.46762 27.3153 6.45446 27.868C8.44144 28.4209 10.4863 27.1864 11.022 25.1107L11.9918 21.3525ZM15.0367 19.5144L17.2997 10.7451C18.1925 7.28578 16.2317 3.7346 12.9204 2.81333C9.6089 1.89207 6.20072 3.94959 5.30807 7.40891L3.0449 16.1781L7.8416 17.5127L6.22515 23.7763C6.04668 24.4682 6.43873 25.1783 7.10116 25.3625C7.76344 25.5469 8.44495 25.1354 8.62357 24.4435L10.24 18.1798L15.0367 19.5144Z" fill="#2EA4AB"/>
<path fill-rule="evenodd" clip-rule="evenodd" d="M2.29919 18.656L4.7967 19.3508L3.8268 23.109C3.29108 25.1847 4.46755 27.3153 6.45453 27.868C8.44136 28.4209 10.4862 27.1864 11.0219 25.1107L11.9918 21.3525L16.7884 22.687L19.6981 11.4123C19.9874 10.2911 20.0627 9.16294 19.9498 8.0752L17.4972 9.54542C17.4681 9.94373 17.403 10.345 17.2997 10.7451L15.0367 19.5144L10.24 18.1798L8.6235 24.4435C8.44503 25.1354 7.76336 25.5469 7.10109 25.3625C6.43881 25.1783 6.0466 24.468 6.22522 23.7763L7.84168 17.5125L5.35898 16.8219L2.29919 18.656Z" fill="#2EA4AB"/>
<path d="M32 5H40.964C42.9906 5 44.7748 5.36857 46.3164 6.10572C47.8754 6.82572 49.0792 7.86286 49.928 9.21714C50.7941 10.5714 51.2271 12.1657 51.2271 14C51.2271 15.8343 50.7941 17.4286 49.928 18.7829C49.0792 20.1371 47.8754 21.1829 46.3164 21.92C44.7748 22.64 42.9906 23 40.964 23H32V5ZM40.7042 18.2686C42.0206 18.2686 43.0686 17.9 43.8481 17.1629C44.6449 16.4086 45.0433 15.3543 45.0433 14C45.0433 12.6457 44.6449 11.6 43.8481 10.8629C43.0686 10.1086 42.0206 9.73143 40.7042 9.73143H38.1319V18.2686H40.7042ZM53.4661 5H59.598V23H53.4661V5ZM78.7889 23L78.737 14.7971L74.7876 21.38H72.0854L68.1361 15.08V23H62.5499V5H67.5905L73.5145 14.5914L79.2826 5H84.3232L84.3752 23H78.7889ZM87.3401 5H93.472V23H87.3401V5ZM105.18 5C106.86 5 108.324 5.27429 109.571 5.82286C110.818 6.37143 111.779 7.16 112.455 8.18858C113.13 9.21715 113.468 10.4171 113.468 11.7886C113.468 13.16 113.13 14.36 112.455 15.3886C111.779 16.4171 110.818 17.2057 109.571 17.7543C108.324 18.3029 106.86 18.5771 105.18 18.5771H102.555V23H96.4235V5H105.18ZM104.79 13.8971C105.621 13.8971 106.245 13.7171 106.661 13.3571C107.076 12.98 107.284 12.4571 107.284 11.7886C107.284 11.12 107.076 10.6057 106.661 10.2457C106.245 9.86857 105.621 9.68 104.79 9.68H102.555V13.8971H104.79ZM126.96 19.8629H120.048L118.827 23H112.591L120.542 5H126.57L134.521 23H128.181L126.96 19.8629ZM125.271 15.4914L123.504 10.9657L121.737 15.4914H125.271ZM145.141 16.4686V23H139.009V16.3914L132.149 5H138.619L142.334 11.2229L146.076 5H152L145.141 16.4686Z" fill="#2EA4AB"/>
</g>
<defs>
<clipPath id="clip0_423_1377">
<rect width="152" height="28" fill="white"/>
</clipPath>
</defs>
</svg>
